#!OML:ASF H:\Terrain\Patient Classification 1\Terrain2\Thursday\justin.ASF
:FULLY-SPECIFIED
:DEGREES
3744
root 19.6477 17.5182 -1.44063 196.162 80.1493 199.152
lowerback 8.57986 1.52068 -0.63662
upperback 3.81642 2.12664 1.35268
thorax -0.932503 1.10412 1.55404
lowerneck -11.5908 -0.500812 -6.89255
upperneck 42.3637 4.32812 0.495812
head 17.4558 1.62088 2.5087
rclavicle 1.50828e-014 -9.93923e-017
rhumerus -32.192 -10.7997 -80.297
rradius 41.9317
rwrist -15.3889
rhand -20.8898 16.1783
rfingers 7.12502
rthumb 5.48079 -13.7308
lclavicle 1.50828e-014 -9.93923e-017
lhumerus -34.9681 9.58818 80.5527
lradius 25.3836
lwrist -4.86082
lhand -16.064 21.7034
lfingers 7.12502
lthumb 10.1384 51.4392
rfemur -11.1571 -8.26104 19.2725
rtibia 51.4312
rfoot -20.8448 -8.89706
rtoes 23.6493
lfemur -6.6814 2.13331 -14.7271
ltibia 34.5253
lfoot -11.9593 -18.3018
ltoes 13.7149
3745
root 19.6651 17.5355 -1.4523 195.398 79.5362 198.418
lowerback 8.53508 1.46804 -0.585454
upperback 3.82793 2.06349 1.41787
thorax -0.894583 1.07316 1.59992
lowerneck -11.5519 -0.569481 -6.95194
upperneck 42.604 4.37828 0.374108
head 17.5937 1.6234 2.4859
rclavicle 2.19657e-014 -8.24956e-015
rhumerus -32.4844 -10.0229 -80.5462
rradius 41.8169
rwrist -15.3139
rhand -21.3849 16.4844
rfingers 7.12502
rthumb 5.00269 -13.4366
lclavicle 2.19657e-014 -8.24956e-015
lhumerus -34.9251 9.4804 80.6859
lradius 26.4369
lwrist -3.9343
lhand -16.4151 21.9757
lfingers 7.12502
lthumb 9.79973 51.7277
rfemur -11.2545 -8.1 19.0959
rtibia 51.7479
rfoot -21.0796 -8.56316
rtoes 25.5033
lfemur -6.53254 1.50804 -14.754
ltibia 34.1988
lfoot -11.6846 -18.44
ltoes 13.6432
3746
root 19.6766 17.5399 -1.46079 194.787 78.7281 197.823
lowerback 8.62738 1.47047 -0.349781
upperback 3.75224 2.08377 1.36308
thorax -1.01435 1.08614 1.40529
lowerneck -11.3191 -0.693038 -6.7236
upperneck 42.7324 4.2313 0.238367
head 17.6266 1.59948 2.36245
rclavicle -1.3828e-014 -5.06901e-015
rhumerus -33.0652 -9.57864 -80.918
rradius 41.9954
rwrist -15.0716
rhand -22.3197 16.2516
rfingers 7.12502
rthumb 4.10002 -13.6887
lclavicle -1.3828e-014 -5.06901e-015
lhumerus -34.8468 8.63724 80.8166
lradius 27.5456
lwrist -2.51264
lhand -16.9491 22.0847
lfingers 7.12502
lthumb 9.28446 51.8602
rfemur -11.4615 -8.75534 19.3475
rtibia 51.9585
rfoot -20.3974 -10.4872
rtoes 16.4167
lfemur -6.4589 0.493657 -14.709
ltibia 33.8704
lfoot -11.69 -18.3735
ltoes 11.7894
3747
root 19.6909 17.5701 -1.45414 193.602 78.0199 196.537
lowerback 8.64324 1.58389 -0.429984
upperback 3.66936 2.22344 1.25228
thorax -1.11115 1.15507 1.32072
lowerneck -11.0401 -0.788155 -6.3621
upperneck 42.6614 4.06574 0.0480198
head 17.5315 1.58484 2.17687
rclavicle -1.41634e-015 -2.48481e-015
rhumerus -33.5379 -9.71049 -81.1606
rradius 42.0466
rwrist -14.2492
rhand -22.4055 15.9312
rfingers 7.12502
rthumb 4.01718 -14.0107
lclavicle -1.41634e-015 -2.48481e-015
lhumerus -34.678 7.54527 81.0508
lradius 28.6946
lwrist -0.93748
lhand -17.7713 22.2252
lfingers 7.12502
lthumb 8.49104 52.0345
rfemur -11.6007 -7.34385 19.3132
rtibia 52.006
rfoot -21.4481 -9.67829
rtoes 22.5538
lfemur -6.50433 -0.293033 -14.7228
ltibia 33.5453
lfoot -11.4233 -18.5684
ltoes 10.5455
3748
root 19.7142 17.5976 -1.44861 193.377 77.4743 196.248
lowerback 8.45142 1.54809 -0.763426
upperback 3.7219 2.1581 1.54744
thorax -0.972202 1.11841 1.82498
lowerneck -11.0127 -0.634686 -6.58718
upperneck 42.5743 4.53438 -0.282213
head 17.4724 1.70603 2.14343
rclavicle -4.92365e-014 -4.96962e-016
rhumerus -33.5324 -9.18423 -81.0974
rradius 41.6526
rwrist -13.0807
rhand -22.3247 16.0997
rfingers 7.12502
rthumb 4.09525 -13.8407
lclavicle -4.92365e-014 -4.96962e-016
lhumerus -34.6576 7.41651 81.561
lradius 30.0393
lwrist 0.686624
lhand -18.4824 22.4257
lfingers 7.12502
lthumb 7.80478 52.2616
rfemur -11.5459 -6.03127 19.4056
rtibia 51.9037
rfoot -22.2636 -8.76639
rtoes 26.4806
lfemur -6.50256 -0.62068 -14.5422
ltibia 33.3385
lfoot -10.9201 -19.0269
ltoes 10.0048
3749
root 19.7439 17.6278 -1.45753 195.443 76.6978 198.359
lowerback 8.14687 1.40912 -0.342474
upperback 3.8725 2.02152 2.0102
thorax -0.646249 1.05375 2.08961
lowerneck -11.1865 -0.464848 -7.08977
upperneck 42.6101 5.04882 -0.376355
head 17.5213 1.82524 2.28457
rclavicle -2.51587e-015 -1.66731e-014
rhumerus -33.4445 -8.1817 -81.105
rradius 41.3331
rwrist -12.2927
rhand -22.4448 16.2471
rfingers 7.12502
rthumb 3.97927 -13.6955
lclavicle -2.51587e-015 -1.66731e-014
lhumerus -34.5645 7.3693 82.0591
lradius 31.3784
lwrist 2.3387
lhand -19.2387 22.1129
lfingers 7.12502
lthumb 7.07476 51.9747
rfemur -11.5326 -5.85973 20.1711
rtibia 51.7631
rfoot -21.9878 -9.25454
rtoes 22.4044
lfemur -6.36946 -0.898683 -13.7832
ltibia 33.0551
lfoot -10.4833 -19.5725
ltoes 9.67426
3750
root 19.7639 17.6361 -1.45586 196.324 75.704 199.359
lowerback 8.08525 1.43306 0.323373
upperback 4.00347 2.10796 2.01625
thorax -0.457966 1.10764 1.71869
lowerneck -11.3382 -0.520388 -7.05519
upperneck 42.7122 4.86322 -0.034216
head 17.6079 1.80233 2.41441
rclavicle 2.44319e-014 -2.23633e-015
rhumerus -33.5384 -8.34677 -81.3453
rradius 41.2088
rwrist -11.7208
rhand -21.495 16.6185
rfingers 7.12502
rthumb 4.89642 -13.3049
lclavicle 2.44319e-014 -2.23633e-015
lhumerus -34.1818 6.3099 82.1721
lradius 32.5813
lwrist 3.94694
lhand -19.6803 22.0418
lfingers 7.12502
lthumb 6.64845 51.9174
rfemur -11.4153 -5.49699 20.7857
rtibia 51.491
rfoot -21.6699 -9.2789
rtoes 21.1952
lfemur -6.28076 -1.48474 -13.1792
ltibia 32.8047
lfoot -9.69727 -20.1441
ltoes 12.2942
